<svg width="392" height="392" viewBox="0 0 392 392" fill="none" xmlns="http://www.w3.org/2000/svg">
<path d="M102.559 314C124.694 314 143.034 306.732 157.58 292.196C171.493 277.66 178.45 256.804 178.45 229.628C178.45 200.556 170.229 171.8 153.786 143.36C136.71 114.92 112.994 92.8 82.6375 77L60.8187 110.18C93.7049 132.932 113.31 161.688 119.634 196.448C113.943 193.92 107.302 192.656 99.713 192.656C82.005 192.656 67.4592 198.344 56.0755 209.72C44.6918 221.096 39 235.632 39 253.328C39 271.024 45.0081 285.56 57.0242 296.936C69.0403 308.312 84.2185 314 102.559 314ZM277.109 314C299.244 314 317.584 306.732 332.13 292.196C346.043 277.66 353 256.804 353 229.628C353 200.556 344.778 171.8 328.335 143.36C311.26 114.92 287.544 92.8 257.187 77L235.369 110.18C268.255 132.932 287.86 161.688 294.184 196.448C288.492 193.92 281.852 192.656 274.263 192.656C256.555 192.656 242.009 198.344 230.625 209.72C219.242 221.096 213.55 235.632 213.55 253.328C213.55 271.024 219.558 285.56 231.574 296.936C243.59 308.312 258.768 314 277.109 314Z" fill="#525252"/>
</svg>
