<svg width="392" height="392" viewBox="0 0 392 392" fill="none" xmlns="http://www.w3.org/2000/svg">
<path d="M289.441 314C267.306 314 248.966 306.732 234.42 292.196C220.507 277.66 213.55 256.804 213.55 229.628C213.55 200.556 221.771 171.8 238.214 143.36C255.29 114.92 279.006 92.8 309.363 77L331.181 110.18C298.295 132.932 278.69 161.688 272.366 196.448C278.057 193.92 284.698 192.656 292.287 192.656C309.995 192.656 324.541 198.344 335.924 209.72C347.308 221.096 353 235.632 353 253.328C353 271.024 346.992 285.56 334.976 296.936C322.96 308.312 307.781 314 289.441 314ZM114.891 314C92.7563 314 74.4159 306.732 59.8701 292.196C45.9567 277.66 39 256.804 39 229.628C39 200.556 47.2215 171.8 63.6646 143.36C80.7402 114.92 104.456 92.8 134.813 77L156.631 110.18C123.745 132.932 104.14 161.688 97.8157 196.448C103.508 193.92 110.148 192.656 117.737 192.656C135.445 192.656 149.991 198.344 161.375 209.72C172.758 221.096 178.45 235.632 178.45 253.328C178.45 271.024 172.442 285.56 160.426 296.936C148.41 308.312 133.232 314 114.891 314Z" fill="#525252"/>
</svg>
