<svg width="328" height="80" viewBox="0 0 328 80" fill="none" xmlns="http://www.w3.org/2000/svg">
<path d="M323.035 8.30786C324.49 8.30786 325.868 8.96563 326.783 10.0971C327.697 11.2285 328.052 12.7128 327.747 14.1355L317.262 63.0896C316.786 65.3112 314.823 66.8985 312.551 66.8986H295.899C294.445 66.8986 293.069 66.2421 292.155 65.1123C291.454 64.2467 291.082 63.1742 291.082 62.0803H292.232L291.806 58.1595L301.593 12.1245L301.642 11.9175C302.19 9.80122 304.103 8.30786 306.307 8.30786H323.035ZM306.307 13.1262L295.899 62.0803H312.551L323.035 13.1262H306.307Z" fill="#97FABB"/>
<path d="M286.912 8.30786L287.142 8.31315C289.499 8.42414 291.445 10.2369 291.703 12.6056L296.679 58.4072L295.899 62.0803H297.05C297.05 63.2619 296.615 64.4097 295.818 65.2982C294.904 66.3167 293.6 66.8986 292.232 66.8986H274.192C271.695 66.8986 269.612 64.9907 269.393 62.5032L268.7 54.6411H261.976L257.777 64.0448C257.002 65.7806 255.278 66.8985 253.377 66.8986H245.899C244.254 66.8986 242.722 66.0588 241.837 64.6718C240.952 63.2849 240.836 61.5425 241.529 60.0505L264.271 11.0964L264.348 10.9388C265.168 9.32893 266.825 8.30786 268.641 8.30786H286.912ZM268.641 13.1262L245.899 62.0803H253.377L258.851 49.8228H273.113L274.192 62.0803H292.232L286.912 13.1262H268.641ZM272.573 44.1946H261.395L270.8 23.2257L272.573 44.1946Z" fill="#97FABB"/>
<path d="M234.043 35.7146C234.043 33.3505 233.169 31.5002 231.422 30.164C229.784 28.863 227.739 28.172 225.287 28.0907L224.792 28.0825C222.839 28.0825 221.066 28.391 219.472 29.0077L218.884 29.2412C217.535 29.792 216.344 30.3826 215.309 31.0121C213.973 31.8859 212.765 32.8369 211.686 33.8648H211.223L209.836 28.9306H197.27L190.254 62.0806H205.981L211.069 38.1049C211.532 37.6424 212.174 37.0768 212.997 36.4086C213.87 35.7406 214.77 35.4064 215.695 35.4064C216.466 35.4064 217.031 35.6635 217.391 36.1775C217.802 36.64 218.007 37.257 218.007 38.0279L218.004 38.2431C217.987 38.7546 217.911 39.3252 217.776 39.9547C217.622 40.6228 217.494 41.2911 217.391 41.9592L213.151 62.0806H228.8L232.038 47.0475C232.192 46.2252 232.373 45.2998 232.578 44.2719C232.835 43.1927 233.066 42.1389 233.272 41.1111C233.426 40.3403 233.566 39.5984 233.691 38.8854L233.812 38.182C233.966 37.2055 234.043 36.3827 234.043 35.7146ZM238.861 35.7146C238.861 36.7226 238.748 37.814 238.571 38.9331C238.569 38.9465 238.567 38.9602 238.565 38.9736C238.401 39.9554 238.211 40.9834 237.996 42.0562C237.785 43.1106 237.55 44.1857 237.29 45.2818C237.093 46.2691 236.921 47.1534 236.774 47.9356C236.766 47.9778 236.758 48.0201 236.749 48.0621L233.511 63.0952C233.033 65.3144 231.07 66.8989 228.8 66.8989H213.151C211.779 66.8989 210.477 66.3143 209.565 65.299C208.675 66.2896 207.388 66.8989 205.981 66.8989H190.254C188.801 66.8988 187.426 66.2431 186.511 65.1143C185.596 63.9856 185.239 62.5044 185.54 61.083L192.555 27.9331L192.604 27.726C193.15 25.6077 195.064 24.1123 197.27 24.1123H209.836L210.037 24.1164C211.612 24.1818 213.025 25.0112 213.863 26.2874C215.057 25.6373 216.352 25.0491 217.733 24.5146C219.954 23.6547 222.328 23.2642 224.792 23.2642C228.3 23.2642 231.603 24.185 234.348 26.3368H234.349C234.357 26.3431 234.365 26.3498 234.373 26.3562C234.388 26.3678 234.403 26.3791 234.418 26.3909H234.417C237.409 28.7121 238.861 32.0081 238.861 35.7146Z" fill="#97FABB"/>
<path d="M192.492 18.8318C192.492 16.8402 191.841 15.355 190.539 14.3764L190.411 14.2829C189.11 13.3674 187.538 12.8814 185.695 12.8242L185.323 12.8183C184.192 12.8183 183.087 12.9723 182.008 13.2806L181.627 13.4035C180.75 13.7071 179.952 14.129 179.232 14.6687C178.462 15.234 177.845 15.9793 177.382 16.9043L177.299 17.0696C176.892 17.9038 176.689 18.851 176.689 19.9111L176.697 20.2993C176.778 22.2085 177.469 23.621 178.77 24.5365C180.158 25.5128 181.879 26.001 183.935 26.001C185.014 26.001 186.068 25.847 187.096 25.5387C188.124 25.2303 189.023 24.7679 189.794 24.1512C190.617 23.5345 191.259 22.7887 191.722 21.915C192.203 21.0959 192.459 20.1413 192.489 19.0512L192.492 18.8318ZM174.684 28.9307L167.668 62.0806H183.318L190.488 28.9307H174.684ZM197.311 18.8318C197.31 20.6803 196.911 22.5315 195.949 24.2253C195.547 24.9762 195.068 25.6675 194.521 26.298C195.222 27.3706 195.471 28.6844 195.197 29.9494L188.028 63.0993C187.548 65.3166 185.587 66.8989 183.318 66.8989H167.668C166.216 66.8989 164.84 66.2431 163.925 65.1144C163.011 63.9857 162.654 62.5045 162.955 61.0831L169.97 27.9331L170.019 27.7261C170.397 26.2584 171.432 25.0906 172.766 24.5112C172.143 23.0688 171.87 21.4938 171.87 19.9111C171.87 18.1442 172.23 16.3838 173.073 14.7493C173.841 13.2119 174.924 11.8645 176.342 10.8144V10.8138C177.637 9.84213 179.077 9.1298 180.623 8.66581L180.684 8.64817C182.197 8.21589 183.748 8 185.323 8C188.135 8.00002 190.846 8.69717 193.184 10.3427C196.133 12.4183 197.311 15.5841 197.311 18.8318Z" fill="#97FABB"/>
<path d="M166.255 35.9463C166.255 33.6336 165.407 31.7572 163.711 30.3181C162.17 28.9208 160.176 28.1786 157.73 28.0913L157.236 28.0825C155.437 28.0825 153.741 28.3909 152.147 29.0077L151.559 29.2412C150.21 29.792 149.019 30.3826 147.984 31.0121C146.597 31.8859 145.312 32.8625 144.129 33.9418H143.667C143.513 32.2972 142.819 30.9094 141.586 29.7788C140.477 28.7187 138.804 28.1557 136.567 28.0895L136.112 28.0825C134.056 28.0825 132.206 28.391 130.561 29.0077L129.955 29.2412C128.567 29.792 127.356 30.3826 126.321 31.0121C124.985 31.8859 123.777 32.8369 122.698 33.8648H122.235L120.848 28.9306H108.282L101.266 62.0806H116.993L122.081 38.1049C122.544 37.6424 123.186 37.0768 124.009 36.4086C124.882 35.7406 125.782 35.4064 126.707 35.4064C127.478 35.4064 128.043 35.6635 128.403 36.1775C128.814 36.64 129.019 37.257 129.019 38.0279L129.016 38.2431C128.999 38.7546 128.923 39.3252 128.788 39.9547C128.634 40.6228 128.506 41.2911 128.403 41.9592L124.163 62.0806H138.579L143.59 38.182C144.053 37.7194 144.695 37.1538 145.518 36.4857C146.391 35.7663 147.316 35.4064 148.293 35.4064C149.063 35.4064 149.655 35.6635 150.066 36.1775C150.477 36.64 150.682 37.2309 150.682 37.9502C150.682 38.4128 150.605 39.004 150.451 39.7236C150.297 40.443 150.143 41.1883 149.989 41.9592L145.826 62.0806H161.013L164.251 47.0475C164.636 45.3129 164.993 43.6796 165.321 42.1474L165.638 40.6488C166.024 38.8178 166.229 37.3256 166.253 36.1722L166.255 35.9463ZM171.074 35.9463C171.074 37.612 170.794 39.5523 170.354 41.6416C169.938 43.615 169.472 45.7656 168.954 48.0927L165.723 63.0952C165.245 65.3143 163.283 66.8989 161.013 66.8989H145.826C144.435 66.8989 143.116 66.2968 142.203 65.2549C141.312 66.2716 140.007 66.8989 138.579 66.8989H124.163C122.791 66.8989 121.488 66.3143 120.577 65.299C119.687 66.2896 118.4 66.8989 116.993 66.8989H101.266C99.8129 66.8988 98.4375 66.2431 97.5227 65.1143C96.6079 63.9856 96.2514 62.5044 96.5522 61.083L103.567 27.9331L103.616 27.726C104.162 25.6077 106.076 24.1123 108.282 24.1123H120.848L121.049 24.1164C122.624 24.1818 124.039 25.0116 124.876 26.2885C126.101 25.6268 127.438 25.033 128.869 24.4964C131.139 23.6454 133.575 23.2642 136.112 23.2642C139.171 23.2642 142.406 23.9466 144.841 26.2268H144.841C145.072 26.4383 145.292 26.6572 145.502 26.882C146.971 25.9904 148.618 25.2078 150.408 24.5146C152.585 23.672 154.874 23.2642 157.236 23.2642C160.822 23.2642 164.196 24.2834 166.891 26.6985C169.673 29.0887 171.074 32.3104 171.074 35.9463Z" fill="#97FABB"/>
<path d="M99.7094 42.5762C99.7094 37.3339 98.2447 33.5817 95.3151 31.3203C92.6265 29.2293 88.3702 28.1513 82.5465 28.086L81.9783 28.0825C75.4511 28.0825 70.3113 29.3419 66.5594 31.8603L66.0847 32.2026C63.7448 33.9432 61.9245 36.0906 60.6236 38.6443L60.3807 39.1589C59.2063 41.7487 58.6191 44.6097 58.6191 47.7415L58.6232 48.2097C58.7119 53.0128 60.1753 56.6341 63.0133 59.0738C65.6521 61.4139 69.9791 62.6209 75.9943 62.694L76.5819 62.6976C83.7514 62.6975 89.2809 61.1537 93.1707 58.0669L93.5418 57.7634C95.3728 56.1733 96.82 54.1991 97.8831 51.8411L98.0907 51.3647C99.1025 48.9074 99.6396 46.179 99.7029 43.1797L99.7094 42.5762ZM81.8242 33.3248C82.7491 33.3249 83.34 33.7104 83.597 34.4812C83.9053 35.2007 84.0599 36.2801 84.0599 37.7191L84.0522 38.3502C84.0185 39.8568 83.8668 41.5996 83.597 43.5784L83.4935 44.4048C83.2349 46.3273 82.8582 48.2105 82.3636 50.0542C81.7982 52.11 81.0274 53.8576 80.0509 55.2966L79.875 55.5577C78.9867 56.8224 77.9405 57.4551 76.736 57.4552L76.5701 57.4499C74.8818 57.3489 74.0374 55.6804 74.0374 52.444C74.0374 51.1077 74.1663 49.3602 74.4233 47.2016C74.6931 45.3128 75.0808 43.4634 75.5867 41.6534L75.8108 40.8799C76.4275 38.8241 77.224 37.0509 78.2005 35.5605C79.2284 34.0701 80.4366 33.3248 81.8242 33.3248ZM104.528 42.5762C104.528 46.3545 103.897 49.9192 102.546 53.1992C102.542 53.2095 102.538 53.22 102.533 53.2303C101.19 56.4275 99.2549 59.1837 96.7014 61.4012C96.683 61.4172 96.6642 61.4331 96.6456 61.4489C91.5534 65.737 84.6197 67.5158 76.5819 67.5159C69.9044 67.5159 63.9293 66.2876 59.8725 62.727V62.7275C59.861 62.7177 59.8498 62.7074 59.8384 62.6976C59.8312 62.6912 59.8238 62.6851 59.8166 62.6787V62.6781C55.5607 58.9865 53.8008 53.7008 53.8008 47.7415C53.8008 43.7405 54.6056 39.9711 56.2976 36.5221C56.3082 36.5005 56.319 36.4789 56.3299 36.4574C58.0854 33.0116 60.5976 30.1522 63.7962 27.9131L63.8744 27.8595C68.7006 24.6201 74.8997 23.2642 81.9783 23.2642C88.455 23.2642 94.2247 24.3681 98.2736 27.5172H98.273C102.811 31.0287 104.528 36.503 104.528 42.5762Z" fill="#97FABB"/>
<path d="M30.9329 23.2642C32.0511 23.2642 33.2055 23.3689 34.3826 23.5547C35.7846 23.7761 37.1401 24.1808 38.4404 24.7587C39.2472 25.1173 40.0007 25.5575 40.7001 26.0703C41.6065 24.8413 43.0451 24.1124 44.5779 24.1123H57.0672C58.5194 24.1123 59.8942 24.7673 60.8091 25.8951C61.724 27.0229 62.0815 28.5036 61.782 29.9246L55.4603 59.9137C54.9051 62.6656 53.974 65.2529 52.65 67.6488C51.2158 70.2439 49.2315 72.4402 46.7912 74.2481L46.7918 74.2487C46.7871 74.2522 46.7818 74.2551 46.7771 74.2587C46.7654 74.2673 46.7542 74.277 46.7424 74.2857L46.7418 74.2851C44.2622 76.1496 41.2865 77.4954 37.9604 78.4311L37.961 78.4317C37.9559 78.4332 37.9508 78.4344 37.9457 78.4359C37.9437 78.4364 37.9418 78.4371 37.9398 78.4376L37.9392 78.437C34.5045 79.4154 30.5165 79.8504 26.0758 79.8504C25.2324 79.8504 24.2624 79.8227 23.1773 79.7722C22.0938 79.7704 20.9907 79.7448 19.8682 79.6951C18.7069 79.6934 17.586 79.6673 16.5068 79.6134C15.4556 79.5608 14.5736 79.5058 13.8806 79.4481C12.461 79.3298 11.1663 78.5896 10.3446 77.426C9.52296 76.2624 9.25835 74.7948 9.6217 73.4176L11.0868 67.8664C11.5649 66.055 13.0233 64.741 14.7647 64.3785C13.8762 63.7505 13.0645 63.0138 12.352 62.1588C12.3248 62.1262 12.2983 62.0927 12.272 62.0594C11.0785 60.5477 10.2371 58.8343 9.71816 56.9811C9.71384 56.9657 9.70938 56.9501 9.70522 56.9346C9.22377 55.1464 9 53.282 9 51.3647C9 50.5089 9.06273 49.3332 9.16704 47.925C9.28872 46.2824 9.55639 44.5038 9.94696 42.6068L9.97578 42.4744C10.4461 40.4758 11.0868 38.4735 11.8885 36.4692C11.897 36.448 11.9056 36.4268 11.9144 36.4057C12.8622 34.131 14.1084 32.0469 15.6569 30.1758L15.7193 30.1017C17.4215 28.127 19.4741 26.5258 21.8227 25.2863L21.8704 25.261C24.6022 23.8582 27.6823 23.2642 30.9329 23.2642ZM35.9436 35.6375C36.7145 35.6375 37.3571 35.9204 37.871 36.4857C38.4363 37.051 38.9244 37.6166 39.3356 38.182L36.4835 51.6729C36.3293 51.8784 36.0722 52.1612 35.7124 52.521C35.404 52.8808 35.0186 53.2405 34.5561 53.6003C34.1449 53.9086 33.6825 54.1915 33.1686 54.4484C32.706 54.7054 32.2174 54.8337 31.7034 54.8337C30.8298 54.8336 30.2134 54.4995 29.8536 53.8314C29.5838 53.2019 29.4315 52.4544 29.3978 51.5888L29.3907 51.2106C29.3907 50.3882 29.4934 49.1288 29.6989 47.4327C29.9238 45.9039 30.2473 44.375 30.6688 42.8462L30.8559 42.1904C31.3698 40.4431 32.0375 38.9268 32.8598 37.642C33.6821 36.3058 34.7102 35.6376 35.9436 35.6375ZM13.8265 51.9381C13.8659 53.2647 14.0429 54.5126 14.3577 55.6818C14.7174 56.9667 15.283 58.0973 16.0539 59.0738C16.8249 59.9989 17.8272 60.7441 19.0607 61.3095L19.3042 61.403C20.4567 61.8246 21.8059 62.0495 23.352 62.0776L23.6861 62.0806C25.2793 62.0806 26.6927 61.9004 27.9262 61.5406C29.211 61.1295 30.3161 60.6414 31.2411 60.0761C32.1662 59.4593 32.9114 58.8424 33.4768 58.2257C34.0934 57.5577 34.5559 56.9925 34.8643 56.53H35.4042L34.479 61.5406C34.222 63.0311 33.8623 64.2905 33.3997 65.3184L33.3209 65.509C32.9174 66.4485 32.378 67.2071 31.7034 67.7852C31.0353 68.402 30.1618 68.8393 29.0825 69.0963L28.8867 69.1521C27.8929 69.4232 26.6731 69.5586 25.2277 69.5586L24.2548 69.5539C23.2333 69.5442 22.0671 69.5201 20.7564 69.4815C19.0604 69.4815 17.3898 69.3532 15.7452 69.0963L14.2806 74.6469C14.8973 74.6982 15.7196 74.7496 16.7474 74.801C17.7752 74.8523 18.8547 74.878 19.9853 74.878C21.116 74.9294 22.2215 74.9551 23.3008 74.9551C24.38 75.0064 25.305 75.0321 26.0758 75.0321C30.2388 75.0321 33.7595 74.621 36.6376 73.7987C39.5671 72.9764 41.9828 71.8458 43.8845 70.4067C45.7155 69.0576 47.1621 67.4822 48.2252 65.6813L48.4328 65.3184C49.5121 63.3654 50.2829 61.2325 50.7455 58.9197L57.0672 28.9306H44.5779L41.1089 33.9418H40.6466C40.2354 32.7083 39.6698 31.706 38.9503 30.9351C38.2758 30.2124 37.511 29.6477 36.6558 29.2412L36.4835 29.1618C35.5584 28.7506 34.6074 28.4678 33.6309 28.3136C32.7765 28.1787 31.981 28.1029 31.2447 28.086L30.9329 28.0825C28.2604 28.0825 25.9729 28.5711 24.0713 29.5476L23.7278 29.7335C22.0264 30.679 20.5734 31.8505 19.3689 33.2478C18.1354 34.7382 17.1331 36.4088 16.3621 38.259L16.0998 38.9325C15.504 40.5008 15.0256 42.0495 14.6659 43.5784L14.537 44.2248C14.2503 45.7146 14.0624 47.0666 13.9724 48.2809L13.9048 49.2543C13.8469 50.1601 13.8183 50.8636 13.8183 51.3647L13.8265 51.9381Z" fill="#97FABB"/>
<path d="M312.551 62.0809H295.898L306.306 13.127H323.035L312.551 62.0809Z" fill="white"/>
<path d="M292.231 62.0809H274.192L273.112 49.8232H258.85L253.377 62.0809H245.899L268.641 13.127H286.912L292.231 62.0809ZM261.394 44.1954H272.573L270.8 23.2261L261.394 44.1954Z" fill="white"/>
<path d="M211.686 33.8647C212.765 32.8368 213.973 31.886 215.309 31.0123C216.491 30.2928 217.879 29.6246 219.472 29.0079C221.065 28.3911 222.838 28.0828 224.792 28.0828C227.464 28.0828 229.674 28.7766 231.422 30.1643C233.169 31.5005 234.043 33.3508 234.043 35.715C234.043 36.3831 233.966 37.2054 233.811 38.1819C233.657 39.107 233.477 40.0836 233.272 41.1115C233.066 42.1394 232.835 43.193 232.578 44.2723C232.372 45.3002 232.192 46.2253 232.038 47.0476L228.8 62.0807H213.15L217.391 41.9595C217.493 41.2913 217.622 40.6232 217.776 39.9551C217.93 39.2355 218.007 38.5931 218.007 38.0277C218.007 37.2568 217.802 36.6401 217.391 36.1775C217.031 35.6636 216.465 35.4066 215.695 35.4066C214.769 35.4066 213.87 35.7407 212.996 36.4088C212.174 37.0769 211.532 37.6423 211.069 38.1048L205.981 62.0807H190.254L197.269 28.9308H209.835L211.223 33.8647H211.686Z" fill="white"/>
<path d="M183.318 62.0805H167.668L174.683 28.9305H190.487L183.318 62.0805ZM192.492 18.8314C192.492 20.0134 192.235 21.0414 191.721 21.9151C191.258 22.7888 190.616 23.534 189.794 24.1508C189.023 24.7675 188.123 25.2301 187.095 25.5384C186.067 25.8468 185.014 26.001 183.935 26.001C181.879 26.001 180.157 25.5127 178.769 24.5362C177.382 23.5597 176.688 22.0179 176.688 19.9107C176.688 18.78 176.919 17.7778 177.382 16.904C177.844 15.9789 178.461 15.2337 179.232 14.6683C180.054 14.0516 180.979 13.589 182.007 13.2807C183.087 12.9723 184.192 12.8181 185.322 12.8181C187.327 12.8181 189.023 13.3064 190.41 14.2829C191.798 15.2594 192.492 16.7756 192.492 18.8314Z" fill="white"/>
<path d="M122.698 33.8647C123.777 32.8368 124.985 31.886 126.321 31.0123C127.503 30.2928 128.917 29.6246 130.561 29.0079C132.206 28.3911 134.056 28.0828 136.112 28.0828C138.579 28.0828 140.404 28.6481 141.586 29.7788C142.819 30.9095 143.513 32.2972 143.667 33.9418H144.13C145.312 32.8625 146.597 31.886 147.984 31.0123C149.166 30.2928 150.554 29.6246 152.147 29.0079C153.741 28.3911 155.437 28.0828 157.236 28.0828C159.908 28.0828 162.067 28.828 163.711 30.3185C165.407 31.7575 166.255 33.6335 166.255 35.9462C166.255 37.1283 166.05 38.6959 165.639 40.6489C165.227 42.6019 164.765 44.7348 164.251 47.0476L161.013 62.0807H145.826L149.989 41.9595C150.143 41.1885 150.297 40.4433 150.451 39.7238C150.606 39.0043 150.683 38.4132 150.683 37.9506C150.683 37.2311 150.477 36.6401 150.066 36.1775C149.655 35.6636 149.064 35.4066 148.293 35.4066C147.316 35.4066 146.391 35.7664 145.517 36.4859C144.695 37.154 144.053 37.7194 143.59 38.1819L138.579 62.0807H124.163L128.403 41.9595C128.506 41.2913 128.634 40.6232 128.788 39.9551C128.942 39.2355 129.02 38.5931 129.02 38.0277C129.02 37.2568 128.814 36.6401 128.403 36.1775C128.043 35.6636 127.478 35.4066 126.707 35.4066C125.782 35.4066 124.882 35.7407 124.009 36.4088C123.186 37.0769 122.544 37.6423 122.081 38.1048L116.993 62.0807H101.266L108.282 28.9308H120.848L122.235 33.8647H122.698Z" fill="white"/>
<path d="M81.9778 28.0828C88.0938 28.0828 92.5395 29.1621 95.3149 31.3207C98.2444 33.582 99.7092 37.3339 99.7092 42.5762C99.7092 45.8141 99.1695 48.7436 98.0902 51.3648C97.0109 53.9346 95.4947 56.0675 93.5417 57.7635C89.6357 61.0528 83.9822 62.6975 76.5813 62.6975C70.2597 62.6975 65.7369 61.4897 63.0129 59.0741C60.0834 56.5557 58.6187 52.7782 58.6187 47.7414C58.6187 44.4008 59.2868 41.3684 60.6231 38.6445C62.0107 35.9205 63.9895 33.6591 66.5592 31.8603C70.3111 29.3419 75.4506 28.0828 81.9778 28.0828ZM76.7355 57.4551C78.0204 57.4551 79.1254 56.7356 80.0505 55.2965C81.027 53.8575 81.7979 52.11 82.3633 50.0542C82.9286 47.947 83.3398 45.7884 83.5967 43.5784C83.9051 41.317 84.0593 39.364 84.0593 37.7194C84.0593 36.2803 83.9051 35.201 83.5967 34.4815C83.3398 33.7105 82.7487 33.3251 81.8236 33.3251C80.4359 33.3251 79.2281 34.0703 78.2002 35.5608C77.2237 37.0512 76.4271 38.8244 75.8104 40.8802C75.1936 42.936 74.7311 45.0432 74.4227 47.2018C74.1657 49.3604 74.0372 51.1078 74.0372 52.4441C74.0372 55.7848 74.9366 57.4551 76.7355 57.4551Z" fill="white"/>
<path d="M44.5782 28.9308H57.0672L50.7456 58.9199C50.283 61.2327 49.5121 63.3656 48.4328 65.3186C47.3535 67.2716 45.8374 68.9677 43.8843 70.4067C41.9827 71.8458 39.5671 72.9765 36.6376 73.7988C33.7595 74.6212 30.2389 75.0323 26.0759 75.0323C25.305 75.0323 24.3798 75.0066 23.3005 74.9552C22.2212 74.9552 21.1162 74.9295 19.9855 74.8781C18.8548 74.8781 17.7755 74.8524 16.7476 74.801C15.7197 74.7496 14.8974 74.6982 14.2807 74.6469L15.7454 69.0962C17.3901 69.3531 19.0604 69.4816 20.7565 69.4816C22.5039 69.533 23.9944 69.5587 25.2279 69.5587C26.7697 69.5587 28.0546 69.4045 29.0825 69.0962C30.1618 68.8392 31.0355 68.4023 31.7037 67.7856C32.4232 67.1688 32.9885 66.3465 33.3997 65.3186C33.8623 64.2907 34.222 63.0315 34.479 61.5411L35.4041 56.53H34.8645C34.5561 56.9926 34.0935 57.5579 33.4768 58.2261C32.9114 58.8428 32.1662 59.4596 31.2411 60.0763C30.316 60.6416 29.211 61.1299 27.9261 61.5411C26.6926 61.9008 25.2793 62.0807 23.686 62.0807C21.8872 62.0807 20.3453 61.8237 19.0604 61.3098C17.8269 60.7444 16.8247 59.9992 16.0538 59.0741C15.2829 58.0976 14.7175 56.9669 14.3578 55.682C13.998 54.3457 13.8181 52.9067 13.8181 51.3648C13.8181 50.6967 13.8695 49.6688 13.9723 48.2811C14.0751 46.8934 14.3064 45.3259 14.6661 43.5784C15.0773 41.831 15.6426 40.0579 16.3622 38.259C17.1331 36.4088 18.1353 34.7384 19.3688 33.248C20.6537 31.7575 22.2212 30.524 24.0715 29.5475C25.9731 28.571 28.2602 28.0828 30.9327 28.0828C31.7551 28.0828 32.6545 28.1599 33.631 28.314C34.6075 28.4682 35.5583 28.7509 36.4834 29.1621C37.4085 29.5732 38.2309 30.1643 38.9504 30.9352C39.6699 31.7061 40.2353 32.7083 40.6464 33.9418H41.109L44.5782 28.9308ZM35.9438 35.6379C34.7103 35.6379 33.6824 36.306 32.8601 37.6423C32.0377 38.9272 31.3696 40.4433 30.8556 42.1908C30.3417 43.9382 29.9562 45.6856 29.6992 47.4331C29.4937 49.1291 29.3909 50.3883 29.3909 51.2106C29.3909 52.2385 29.5451 53.1122 29.8534 53.8318C30.2132 54.4999 30.8299 54.834 31.7037 54.834C32.2176 54.834 32.7059 54.7055 33.1684 54.4485C33.6824 54.1915 34.1449 53.9089 34.5561 53.6005C35.0187 53.2407 35.4041 52.881 35.7125 52.5212C36.0723 52.1614 36.3292 51.8788 36.4834 51.6732L39.3359 38.1819C38.9247 37.6166 38.4364 37.0512 37.8711 36.4859C37.3571 35.9205 36.7147 35.6379 35.9438 35.6379Z" fill="white"/>
<path d="M303.551 54.0809H286.898L297.306 5.12695H314.035L303.551 54.0809Z" fill="#AB9BFF"/>
<path d="M283.231 54.0809H265.192L264.112 41.8232H249.85L244.377 54.0809H236.899L259.641 5.12695H277.912L283.231 54.0809ZM252.394 36.1954H263.573L261.8 15.2261L252.394 36.1954Z" fill="#AB9BFF"/>
<path d="M202.686 25.8647C203.765 24.8368 204.973 23.886 206.309 23.0123C207.491 22.2928 208.879 21.6246 210.472 21.0079C212.065 20.3911 213.838 20.0828 215.792 20.0828C218.464 20.0828 220.674 20.7766 222.422 22.1643C224.169 23.5005 225.043 25.3508 225.043 27.715C225.043 28.3831 224.966 29.2054 224.811 30.1819C224.657 31.107 224.477 32.0836 224.272 33.1115C224.066 34.1394 223.835 35.193 223.578 36.2723C223.372 37.3002 223.192 38.2253 223.038 39.0476L219.8 54.0807H204.15L208.391 33.9595C208.493 33.2913 208.622 32.6232 208.776 31.9551C208.93 31.2355 209.007 30.5931 209.007 30.0277C209.007 29.2568 208.802 28.6401 208.391 28.1775C208.031 27.6636 207.465 27.4066 206.695 27.4066C205.769 27.4066 204.87 27.7407 203.996 28.4088C203.174 29.0769 202.532 29.6423 202.069 30.1048L196.981 54.0807H181.254L188.269 20.9308H200.835L202.223 25.8647H202.686Z" fill="#AB9BFF"/>
<path d="M174.318 54.0805H158.668L165.683 20.9305H181.487L174.318 54.0805ZM183.492 10.8314C183.492 12.0134 183.235 13.0414 182.721 13.9151C182.258 14.7888 181.616 15.534 180.794 16.1508C180.023 16.7675 179.123 17.2301 178.095 17.5384C177.067 17.8468 176.014 18.001 174.935 18.001C172.879 18.001 171.157 17.5127 169.769 16.5362C168.382 15.5597 167.688 14.0179 167.688 11.9107C167.688 10.78 167.919 9.77776 168.382 8.90404C168.844 7.97892 169.461 7.23369 170.232 6.66835C171.054 6.0516 171.979 5.58905 173.007 5.28068C174.087 4.9723 175.192 4.81812 176.322 4.81812C178.327 4.81812 180.023 5.30637 181.41 6.28288C182.798 7.25939 183.492 8.77555 183.492 10.8314Z" fill="#AB9BFF"/>
<path d="M113.698 25.8647C114.777 24.8368 115.985 23.886 117.321 23.0123C118.503 22.2928 119.917 21.6246 121.561 21.0079C123.206 20.3911 125.056 20.0828 127.112 20.0828C129.579 20.0828 131.404 20.6481 132.586 21.7788C133.819 22.9095 134.513 24.2972 134.667 25.9418H135.13C136.312 24.8625 137.597 23.886 138.984 23.0123C140.166 22.2928 141.554 21.6246 143.147 21.0079C144.741 20.3911 146.437 20.0828 148.236 20.0828C150.908 20.0828 153.067 20.828 154.711 22.3185C156.407 23.7575 157.255 25.6335 157.255 27.9462C157.255 29.1283 157.05 30.6959 156.639 32.6489C156.227 34.6019 155.765 36.7348 155.251 39.0476L152.013 54.0807H136.826L140.989 33.9595C141.143 33.1885 141.297 32.4433 141.451 31.7238C141.606 31.0043 141.683 30.4132 141.683 29.9506C141.683 29.2311 141.477 28.6401 141.066 28.1775C140.655 27.6636 140.064 27.4066 139.293 27.4066C138.316 27.4066 137.391 27.7664 136.517 28.4859C135.695 29.154 135.053 29.7194 134.59 30.1819L129.579 54.0807H115.163L119.403 33.9595C119.506 33.2913 119.634 32.6232 119.788 31.9551C119.942 31.2355 120.02 30.5931 120.02 30.0277C120.02 29.2568 119.814 28.6401 119.403 28.1775C119.043 27.6636 118.478 27.4066 117.707 27.4066C116.782 27.4066 115.882 27.7407 115.009 28.4088C114.186 29.0769 113.544 29.6423 113.081 30.1048L107.993 54.0807H92.2661L99.2816 20.9308H111.848L113.235 25.8647H113.698Z" fill="#AB9BFF"/>
<path d="M72.9778 20.0828C79.0938 20.0828 83.5395 21.1621 86.3149 23.3207C89.2444 25.582 90.7092 29.3339 90.7092 34.5762C90.7092 37.8141 90.1695 40.7436 89.0902 43.3648C88.0109 45.9346 86.4947 48.0675 84.5417 49.7635C80.6357 53.0528 74.9822 54.6975 67.5813 54.6975C61.2597 54.6975 56.7369 53.4897 54.0129 51.0741C51.0834 48.5557 49.6187 44.7782 49.6187 39.7414C49.6187 36.4008 50.2868 33.3684 51.6231 30.6445C53.0107 27.9205 54.9895 25.6591 57.5592 23.8603C61.3111 21.3419 66.4506 20.0828 72.9778 20.0828ZM67.7355 49.4551C69.0204 49.4551 70.1254 48.7356 71.0505 47.2965C72.027 45.8575 72.7979 44.11 73.3633 42.0542C73.9286 39.947 74.3398 37.7884 74.5967 35.5784C74.9051 33.317 75.0593 31.364 75.0593 29.7194C75.0593 28.2803 74.9051 27.201 74.5967 26.4815C74.3398 25.7105 73.7487 25.3251 72.8236 25.3251C71.4359 25.3251 70.2281 26.0703 69.2002 27.5608C68.2237 29.0512 67.4271 30.8244 66.8104 32.8802C66.1936 34.936 65.7311 37.0432 65.4227 39.2018C65.1657 41.3604 65.0372 43.1078 65.0372 44.4441C65.0372 47.7848 65.9366 49.4551 67.7355 49.4551Z" fill="#AB9BFF"/>
<path d="M35.5782 20.9308H48.0672L41.7456 50.9199C41.283 53.2327 40.5121 55.3656 39.4328 57.3186C38.3535 59.2716 36.8374 60.9677 34.8843 62.4067C32.9827 63.8458 30.5671 64.9765 27.6376 65.7988C24.7595 66.6212 21.2389 67.0323 17.0759 67.0323C16.305 67.0323 15.3798 67.0066 14.3005 66.9552C13.2212 66.9552 12.1162 66.9295 10.9855 66.8781C9.85485 66.8781 8.77555 66.8524 7.74764 66.801C6.71974 66.7496 5.89742 66.6982 5.28067 66.6469L6.74544 61.0962C8.39008 61.3531 10.0604 61.4816 11.7565 61.4816C13.5039 61.533 14.9944 61.5587 16.2279 61.5587C17.7697 61.5587 19.0546 61.4045 20.0825 61.0962C21.1618 60.8392 22.0355 60.4023 22.7037 59.7856C23.4232 59.1688 23.9885 58.3465 24.3997 57.3186C24.8623 56.2907 25.222 55.0315 25.479 53.5411L26.4041 48.53H25.8645C25.5561 48.9926 25.0935 49.5579 24.4768 50.2261C23.9114 50.8428 23.1662 51.4596 22.2411 52.0763C21.316 52.6416 20.211 53.1299 18.9261 53.5411C17.6926 53.9008 16.2793 54.0807 14.686 54.0807C12.8872 54.0807 11.3453 53.8237 10.0604 53.3098C8.82694 52.7444 7.82474 51.9992 7.05381 51.0741C6.28288 50.0976 5.71753 48.9669 5.35777 47.682C4.998 46.3457 4.81812 44.9067 4.81812 43.3648C4.81812 42.6967 4.86951 41.6688 4.9723 40.2811C5.07509 38.8934 5.30637 37.3259 5.66614 35.5784C6.0773 33.831 6.64265 32.0579 7.36218 30.259C8.13311 28.4088 9.13532 26.7384 10.3688 25.248C11.6537 23.7575 13.2212 22.524 15.0715 21.5475C16.9731 20.571 19.2602 20.0828 21.9327 20.0828C22.7551 20.0828 23.6545 20.1599 24.631 20.314C25.6075 20.4682 26.5583 20.7509 27.4834 21.1621C28.4085 21.5732 29.2309 22.1643 29.9504 22.9352C30.6699 23.7061 31.2353 24.7083 31.6464 25.9418H32.109L35.5782 20.9308ZM26.9438 27.6379C25.7103 27.6379 24.6824 28.306 23.8601 29.6423C23.0377 30.9272 22.3696 32.4433 21.8556 34.1908C21.3417 35.9382 20.9562 37.6856 20.6992 39.4331C20.4937 41.1291 20.3909 42.3883 20.3909 43.2106C20.3909 44.2385 20.5451 45.1122 20.8534 45.8318C21.2132 46.4999 21.8299 46.834 22.7037 46.834C23.2176 46.834 23.7059 46.7055 24.1684 46.4485C24.6824 46.1915 25.1449 45.9089 25.5561 45.6005C26.0187 45.2407 26.4041 44.881 26.7125 44.5212C27.0723 44.1614 27.3292 43.8788 27.4834 43.6732L30.3359 30.1819C29.9247 29.6166 29.4364 29.0512 28.8711 28.4859C28.3571 27.9205 27.7147 27.6379 26.9438 27.6379Z" fill="#AB9BFF"/>
<path d="M314.035 0.307861C315.49 0.307861 316.868 0.965625 317.783 2.09708C318.697 3.22852 319.052 4.7128 318.747 6.13547L308.262 55.0896C307.786 57.3112 305.823 58.8985 303.551 58.8986H286.899C285.445 58.8986 284.069 58.2421 283.155 57.1123C282.454 56.2467 282.082 55.1742 282.082 54.0803H283.232L282.806 50.1595L292.593 4.12451L292.642 3.91747C293.19 1.80122 295.103 0.307861 297.307 0.307861H314.035ZM297.307 5.12616L286.899 54.0803H303.551L314.035 5.12616H297.307Z" fill="#97FABB"/>
<path d="M277.912 0.307861L278.142 0.313155C280.499 0.424142 282.445 2.23692 282.703 4.60563L287.679 50.4072L286.899 54.0803H288.05C288.05 55.2619 287.615 56.4097 286.818 57.2982C285.904 58.3167 284.6 58.8986 283.232 58.8986H265.192C262.695 58.8986 260.612 56.9907 260.393 54.5032L259.7 46.6411H252.976L248.777 56.0448C248.002 57.7806 246.278 58.8985 244.377 58.8986H236.899C235.254 58.8986 233.722 58.0588 232.837 56.6718C231.952 55.2849 231.836 53.5425 232.529 52.0505L255.271 3.09638L255.348 2.93875C256.168 1.32893 257.825 0.307861 259.641 0.307861H277.912ZM259.641 5.12616L236.899 54.0803H244.377L249.851 41.8228H264.113L265.192 54.0803H283.232L277.912 5.12616H259.641ZM263.573 36.1946H252.395L261.8 15.2257L263.573 36.1946Z" fill="#97FABB"/>
<path d="M225.043 27.7146C225.043 25.3505 224.169 23.5002 222.422 22.164C220.784 20.863 218.739 20.172 216.287 20.0907L215.792 20.0825C213.839 20.0825 212.066 20.391 210.472 21.0077L209.884 21.2412C208.535 21.792 207.344 22.3826 206.309 23.0121C204.973 23.8859 203.765 24.8369 202.686 25.8648H202.223L200.836 20.9306H188.27L181.254 54.0806H196.981L202.069 30.1049C202.532 29.6424 203.174 29.0768 203.997 28.4086C204.87 27.7406 205.77 27.4064 206.695 27.4064C207.466 27.4064 208.031 27.6635 208.391 28.1775C208.802 28.64 209.007 29.257 209.007 30.0279L209.004 30.2431C208.987 30.7546 208.911 31.3252 208.776 31.9547C208.622 32.6228 208.494 33.2911 208.391 33.9592L204.151 54.0806H219.8L223.038 39.0475C223.192 38.2252 223.373 37.2998 223.578 36.2719C223.835 35.1927 224.066 34.1389 224.272 33.1111C224.426 32.3403 224.566 31.5984 224.691 30.8854L224.812 30.182C224.966 29.2055 225.043 28.3827 225.043 27.7146ZM229.861 27.7146C229.861 28.7226 229.748 29.814 229.571 30.9331C229.569 30.9465 229.567 30.9602 229.565 30.9736C229.401 31.9554 229.211 32.9834 228.996 34.0562C228.785 35.1106 228.55 36.1857 228.29 37.2818C228.093 38.2691 227.921 39.1534 227.774 39.9356C227.766 39.9778 227.758 40.0201 227.749 40.0621L224.511 55.0952C224.033 57.3144 222.07 58.8989 219.8 58.8989H204.151C202.779 58.8989 201.477 58.3143 200.565 57.299C199.675 58.2896 198.388 58.8989 196.981 58.8989H181.254C179.801 58.8988 178.426 58.2431 177.511 57.1143C176.596 55.9856 176.239 54.5044 176.54 53.083L183.555 19.9331L183.604 19.726C184.15 17.6077 186.064 16.1123 188.27 16.1123H200.836L201.037 16.1164C202.612 16.1818 204.025 17.0112 204.863 18.2874C206.057 17.6373 207.352 17.0491 208.733 16.5146C210.954 15.6547 213.328 15.2642 215.792 15.2642C219.3 15.2642 222.603 16.185 225.348 18.3368H225.349C225.357 18.3431 225.365 18.3498 225.373 18.3562C225.388 18.3678 225.403 18.3791 225.418 18.3909H225.417C228.409 20.7121 229.861 24.0081 229.861 27.7146Z" fill="#97FABB"/>
<path d="M183.492 10.8318C183.492 8.8402 182.841 7.35504 181.539 6.37637L181.411 6.28285C180.11 5.36741 178.538 4.88144 176.695 4.82419L176.323 4.8183C175.192 4.8183 174.087 4.97228 173.008 5.28061L172.627 5.40353C171.75 5.7071 170.952 6.12898 170.232 6.66869C169.462 7.23403 168.845 7.97926 168.382 8.90433L168.299 9.06961C167.892 9.90379 167.689 10.851 167.689 11.9111L167.697 12.2993C167.778 14.2085 168.469 15.621 169.77 16.5365C171.158 17.5128 172.879 18.001 174.935 18.001C176.014 18.001 177.068 17.847 178.096 17.5387C179.124 17.2303 180.023 16.7679 180.794 16.1512C181.617 15.5345 182.259 14.7887 182.722 13.915C183.203 13.0959 183.459 12.1413 183.489 11.0512L183.492 10.8318ZM165.684 20.9307L158.668 54.0806H174.318L181.488 20.9307H165.684ZM188.311 10.8318C188.31 12.6803 187.911 14.5315 186.949 16.2253C186.547 16.9762 186.068 17.6675 185.521 18.298C186.222 19.3706 186.471 20.6844 186.197 21.9494L179.028 55.0993C178.548 57.3166 176.587 58.8989 174.318 58.8989H158.668C157.216 58.8989 155.84 58.2431 154.925 57.1144C154.011 55.9857 153.654 54.5045 153.955 53.0831L160.97 19.9331L161.019 19.7261C161.397 18.2584 162.432 17.0906 163.766 16.5112C163.143 15.0688 162.87 13.4938 162.87 11.9111C162.87 10.1442 163.23 8.38382 164.073 6.74927C164.841 5.21192 165.924 3.86448 167.342 2.8144V2.81381C168.637 1.84213 170.077 1.1298 171.623 0.665811L171.684 0.648165C173.197 0.21589 174.748 0 176.323 0C179.135 2.23988e-05 181.846 0.697171 184.184 2.34269C187.133 4.41832 188.311 7.58408 188.311 10.8318Z" fill="#97FABB"/>
<path d="M157.255 27.9463C157.255 25.6336 156.407 23.7572 154.711 22.3181C153.17 20.9208 151.176 20.1786 148.73 20.0913L148.236 20.0825C146.437 20.0825 144.741 20.3909 143.147 21.0077L142.559 21.2412C141.21 21.792 140.019 22.3826 138.984 23.0121C137.597 23.8859 136.312 24.8625 135.129 25.9418H134.667C134.513 24.2972 133.819 22.9094 132.586 21.7788C131.477 20.7187 129.804 20.1557 127.567 20.0895L127.112 20.0825C125.056 20.0825 123.206 20.391 121.561 21.0077L120.955 21.2412C119.567 21.792 118.356 22.3826 117.321 23.0121C115.985 23.8859 114.777 24.8369 113.698 25.8648H113.235L111.848 20.9306H99.2815L92.2658 54.0806H107.993L113.081 30.1049C113.544 29.6424 114.186 29.0768 115.009 28.4086C115.882 27.7406 116.782 27.4064 117.707 27.4064C118.478 27.4064 119.043 27.6635 119.403 28.1775C119.814 28.64 120.019 29.257 120.019 30.0279L120.016 30.2431C119.999 30.7546 119.923 31.3252 119.788 31.9547C119.634 32.6228 119.506 33.2911 119.403 33.9592L115.163 54.0806H129.579L134.59 30.182C135.053 29.7194 135.695 29.1538 136.518 28.4857C137.391 27.7663 138.316 27.4064 139.293 27.4064C140.063 27.4064 140.655 27.6635 141.066 28.1775C141.477 28.64 141.682 29.2309 141.682 29.9502C141.682 30.4128 141.605 31.004 141.451 31.7236C141.297 32.443 141.143 33.1883 140.989 33.9592L136.826 54.0806H152.013L155.251 39.0475C155.636 37.3129 155.993 35.6796 156.321 34.1474L156.638 32.6488C157.024 30.8178 157.229 29.3256 157.253 28.1722L157.255 27.9463ZM162.074 27.9463C162.074 29.612 161.794 31.5523 161.354 33.6416C160.938 35.615 160.472 37.7656 159.954 40.0927L156.723 55.0952C156.245 57.3143 154.283 58.8989 152.013 58.8989H136.826C135.435 58.8989 134.116 58.2968 133.203 57.2549C132.312 58.2716 131.007 58.8989 129.579 58.8989H115.163C113.791 58.8989 112.488 58.3143 111.577 57.299C110.687 58.2896 109.4 58.8989 107.993 58.8989H92.2658C90.8129 58.8988 89.4375 58.2431 88.5227 57.1143C87.6079 55.9856 87.2514 54.5044 87.5522 53.083L94.5673 19.9331L94.6162 19.726C95.1622 17.6077 97.0761 16.1123 99.2815 16.1123H111.848L112.049 16.1164C113.624 16.1818 115.039 17.0116 115.876 18.2885C117.101 17.6268 118.438 17.033 119.869 16.4964C122.139 15.6454 124.575 15.2642 127.112 15.2642C130.171 15.2642 133.406 15.9466 135.841 18.2268H135.841C136.072 18.4383 136.292 18.6572 136.502 18.882C137.971 17.9904 139.618 17.2078 141.408 16.5146C143.585 15.672 145.874 15.2642 148.236 15.2642C151.822 15.2642 155.196 16.2834 157.891 18.6985C160.673 21.0887 162.074 24.3104 162.074 27.9463Z" fill="#97FABB"/>
<path d="M90.7094 34.5762C90.7094 29.3339 89.2447 25.5817 86.3151 23.3203C83.6265 21.2293 79.3702 20.1513 73.5465 20.086L72.9783 20.0825C66.4511 20.0825 61.3113 21.3419 57.5594 23.8603L57.0847 24.2026C54.7448 25.9432 52.9245 28.0906 51.6236 30.6443L51.3807 31.1589C50.2063 33.7487 49.6191 36.6097 49.6191 39.7415L49.6232 40.2097C49.7119 45.0128 51.1753 48.6341 54.0133 51.0738C56.6521 53.4139 60.9791 54.6209 66.9943 54.694L67.5819 54.6976C74.7514 54.6975 80.2809 53.1537 84.1707 50.0669L84.5418 49.7634C86.3728 48.1733 87.82 46.1991 88.8831 43.8411L89.0907 43.3647C90.1025 40.9074 90.6396 38.179 90.7029 35.1797L90.7094 34.5762ZM72.8242 25.3248C73.7491 25.3249 74.34 25.7104 74.597 26.4812C74.9053 27.2007 75.0599 28.2801 75.0599 29.7191L75.0522 30.3502C75.0185 31.8568 74.8668 33.5996 74.597 35.5784L74.4935 36.4048C74.2349 38.3273 73.8582 40.2105 73.3636 42.0542C72.7982 44.11 72.0274 45.8576 71.0509 47.2966L70.875 47.5577C69.9867 48.8224 68.9405 49.4551 67.736 49.4552L67.5701 49.4499C65.8818 49.3489 65.0374 47.6804 65.0374 44.444C65.0374 43.1077 65.1663 41.3602 65.4233 39.2016C65.6931 37.3128 66.0808 35.4634 66.5867 33.6534L66.8108 32.8799C67.4275 30.8241 68.224 29.0509 69.2005 27.5605C70.2284 26.0701 71.4366 25.3248 72.8242 25.3248ZM95.5277 34.5762C95.5276 38.3545 94.8967 41.9192 93.5461 45.1992C93.5418 45.2095 93.5375 45.22 93.5332 45.2303C92.1904 48.4275 90.2549 51.1837 87.7014 53.4012C87.683 53.4172 87.6642 53.4331 87.6456 53.4489C82.5534 57.737 75.6197 59.5158 67.5819 59.5159C60.9044 59.5159 54.9293 58.2876 50.8725 54.727V54.7275C50.861 54.7177 50.8498 54.7074 50.8384 54.6976C50.8312 54.6912 50.8238 54.6851 50.8166 54.6787V54.6781C46.5607 50.9865 44.8008 45.7008 44.8008 39.7415C44.8008 35.7405 45.6056 31.9711 47.2976 28.5221C47.3082 28.5005 47.319 28.4789 47.3299 28.4574C49.0854 25.0116 51.5976 22.1522 54.7962 19.9131L54.8744 19.8595C59.7006 16.6201 65.8997 15.2642 72.9783 15.2642C79.455 15.2642 85.2247 16.3681 89.2736 19.5172H89.273C93.8112 23.0287 95.5277 28.503 95.5277 34.5762Z" fill="#97FABB"/>
<path d="M21.9329 15.2642C23.0511 15.2642 24.2055 15.3689 25.3826 15.5547C26.7846 15.7761 28.1401 16.1808 29.4404 16.7587C30.2472 17.1173 31.0007 17.5575 31.7001 18.0703C32.6065 16.8413 34.0451 16.1124 35.5779 16.1123H48.0672C49.5194 16.1123 50.8942 16.7673 51.8091 17.8951C52.724 19.0229 53.0815 20.5036 52.782 21.9246L46.4603 51.9137C45.9051 54.6656 44.974 57.2529 43.65 59.6488C42.2158 62.2439 40.2315 64.4402 37.7912 66.2481L37.7918 66.2487C37.7871 66.2522 37.7818 66.2551 37.7771 66.2587C37.7654 66.2673 37.7542 66.277 37.7424 66.2857L37.7418 66.2851C35.2622 68.1496 32.2865 69.4954 28.9604 70.4311L28.961 70.4317C28.9559 70.4332 28.9508 70.4344 28.9457 70.4359C28.9437 70.4364 28.9418 70.4371 28.9398 70.4376L28.9392 70.437C25.5045 71.4154 21.5165 71.8504 17.0758 71.8504C16.2324 71.8504 15.2624 71.8227 14.1773 71.7722C13.0938 71.7704 11.9907 71.7448 10.8682 71.6951C9.70689 71.6934 8.58596 71.6673 7.50684 71.6134C6.45564 71.5608 5.57361 71.5058 4.88065 71.4481C3.46103 71.3298 2.16625 70.5896 1.34456 69.426C0.522964 68.2624 0.258346 66.7948 0.621698 65.4176L2.08683 59.8664C2.56493 58.055 4.02325 56.741 5.76467 56.3785C4.87622 55.7505 4.06453 55.0138 3.35199 54.1588C3.3248 54.1262 3.29832 54.0927 3.272 54.0594C2.07855 52.5477 1.23707 50.8343 0.718158 48.9811C0.713838 48.9657 0.709384 48.9501 0.705218 48.9346C0.223774 47.1464 4.47129e-07 45.282 0 43.3647C0 42.5089 0.0627297 41.3332 0.167041 39.925C0.288718 38.2824 0.556388 36.5038 0.946957 34.6068L0.975777 34.4744C1.44605 32.4758 2.08679 30.4735 2.88851 28.4692C2.897 28.448 2.9056 28.4268 2.91439 28.4057C3.86218 26.131 5.10837 24.0469 6.65693 22.1758L6.71927 22.1017C8.42153 20.127 10.4741 18.5258 12.8227 17.2863L12.8704 17.261C15.6022 15.8582 18.6823 15.2642 21.9329 15.2642ZM26.9436 27.6375C27.7145 27.6375 28.3571 27.9204 28.871 28.4857C29.4363 29.051 29.9244 29.6166 30.3356 30.182L27.4835 43.6729C27.3293 43.8784 27.0722 44.1612 26.7124 44.521C26.404 44.8808 26.0186 45.2405 25.5561 45.6003C25.1449 45.9086 24.6825 46.1915 24.1686 46.4484C23.706 46.7054 23.2174 46.8337 22.7034 46.8337C21.8298 46.8336 21.2134 46.4995 20.8536 45.8314C20.5838 45.2019 20.4315 44.4544 20.3978 43.5888L20.3907 43.2106C20.3907 42.3882 20.4934 41.1288 20.6989 39.4327C20.9238 37.9039 21.2473 36.375 21.6688 34.8462L21.8559 34.1904C22.3698 32.4431 23.0375 30.9268 23.8598 29.642C24.6821 28.3058 25.7102 27.6376 26.9436 27.6375ZM4.82654 43.9381C4.86589 45.2647 5.04287 46.5126 5.35766 47.6818C5.71742 48.9667 6.28302 50.0973 7.05394 51.0738C7.82487 51.9989 8.8272 52.7441 10.0607 53.3095L10.3042 53.403C11.4567 53.8246 12.8059 54.0495 14.352 54.0776L14.6861 54.0806C16.2793 54.0806 17.6927 53.9004 18.9262 53.5406C20.211 53.1295 21.3161 52.6414 22.2411 52.0761C23.1662 51.4593 23.9114 50.8424 24.4768 50.2257C25.0934 49.5577 25.5559 48.9925 25.8643 48.53H26.4042L25.479 53.5406C25.222 55.0311 24.8623 56.2905 24.3997 57.3184L24.3209 57.509C23.9174 58.4485 23.378 59.2071 22.7034 59.7852C22.0353 60.402 21.1618 60.8393 20.0825 61.0963L19.8867 61.1521C18.8929 61.4232 17.6731 61.5586 16.2277 61.5586L15.2548 61.5539C14.2333 61.5442 13.0671 61.5201 11.7564 61.4815C10.0604 61.4815 8.38978 61.3532 6.74515 61.0963L5.28061 66.6469C5.89731 66.6982 6.7196 66.7496 7.7474 66.801C8.77523 66.8523 9.85468 66.878 10.9853 66.878C12.116 66.9294 13.2215 66.9551 14.3008 66.9551C15.38 67.0064 16.305 67.0321 17.0758 67.0321C21.2388 67.0321 24.7595 66.621 27.6376 65.7987C30.5671 64.9764 32.9828 63.8458 34.8845 62.4067C36.7155 61.0576 38.1621 59.4822 39.2252 57.6813L39.4328 57.3184C40.5121 55.3654 41.2829 53.2325 41.7455 50.9197L48.0672 20.9306H35.5779L32.1089 25.9418H31.6466C31.2354 24.7083 30.6698 23.706 29.9503 22.9351C29.2758 22.2124 28.511 21.6477 27.6558 21.2412L27.4835 21.1618C26.5584 20.7506 25.6074 20.4678 24.6309 20.3136C23.7765 20.1787 22.981 20.1029 22.2447 20.086L21.9329 20.0825C19.2604 20.0825 16.9729 20.5711 15.0713 21.5476L14.7278 21.7335C13.0264 22.679 11.5734 23.8505 10.3689 25.2478C9.1354 26.7382 8.13308 28.4088 7.36215 30.259L7.09982 30.9325C6.50398 32.5008 6.02562 34.0495 5.66586 35.5784L5.53705 36.2248C5.25034 37.7146 5.06235 39.0666 4.9724 40.2809L4.90476 41.2543C4.84695 42.1601 4.8183 42.8636 4.8183 43.3647L4.82654 43.9381Z" fill="#97FABB"/>
</svg>
